# xmcd CD database file
#
# Track frame offsets:
#	150
#	16377
#	35267
#	56292
#	72467
#	90467
#	107072
#	133792
#	153155
#	172162
#	190477
#	210757
#	231287
#	246700
#	266507
#	286062
#	307437
#	325932
#
# Disc length: 4617 seconds
#
# Revision: 3
# Processed by: cddbd v1.5.2PL0 Copyright (c) Steve Scherf et al.
# Submitted via: CDex 1.51
#
DISCID=06120712
DTITLE=Various Artist - The Power Of Love
DYEAR=1900
DGENRE=Blues
TTITLE0=Leann Rimes - Can't Fight The Moonlight
TTITLE1=Savage Garden - I Knew I Loved You
TTITLE2=Celine Dion - My Heart Will Go On
TTITLE3=Mariah Carey - Without You
TTITLE4=Rod Stewart - Have I Told You Lately
TTITLE5=Faith Hill - There You'll Be
TTITLE6=Bryan Adams - Please Forgive Me
TTITLE7=The Corrs - What Can I Do
TTITLE8=Michael learns to rock - That's Why (You Go Away)
TTITLE9=Air Supply - Goodbye
TTITLE10=Toni Braxton - Un-Break My Heart
TTITLE11=Eric Clapton - Tears In Heaven
TTITLE12=Phil Collins - Against All Odds
TTITLE13=Richard Marx - Right Here Waiting
TTITLE14=Roxette - It Must Have Been Love
TTITLE15=R. Kelly - I Believe I Can Fly
TTITLE16=Boyz to men - I'll Make Love To You
TTITLE17=Madonna - Take A Bow
EXTD=
EXTT0=
EXTT1=
EXTT2=
EXTT3=
EXTT4=
EXTT5=
EXTT6=
EXTT7=
EXTT8=
EXTT9=
EXTT10=
EXTT11=
EXTT12=
EXTT13=
EXTT14=
EXTT15=
EXTT16=
EXTT17=
PLAYORDER=
